<svg width="24" height="24" viewBox="0 0 24 24" fill="none" xmlns="http://www.w3.org/2000/svg">
<path fill-rule="evenodd" clip-rule="evenodd" d="M7.34872 3C7.53375 3 7.71121 3.07149 7.84204 3.19875C7.97288 3.32601 8.04638 3.4986 8.04638 3.67857V4.3689C8.66218 4.35714 9.34031 4.35714 10.0873 4.35714H13.9123C14.6593 4.35714 15.3374 4.35714 15.9532 4.3689V3.67857C15.9532 3.4986 16.0267 3.32601 16.1575 3.19875C16.2884 3.07149 16.4658 3 16.6508 3C16.8359 3 17.0133 3.07149 17.1442 3.19875C17.275 3.32601 17.3485 3.4986 17.3485 3.67857V4.42681C17.5904 4.4449 17.8192 4.46752 18.0359 4.49557C19.1261 4.63852 20.0089 4.9389 20.7056 5.61567C21.4014 6.29333 21.7103 7.15195 21.8573 8.21233C21.9038 8.55162 21.9354 8.92167 21.9568 9.32519C22.0076 9.45865 22.0138 9.6043 21.9745 9.74138C21.9996 10.4661 21.9996 11.2903 21.9996 12.2231V14.134C21.9996 15.797 21.9996 17.1143 21.8573 18.1448C21.7103 19.2052 21.4014 20.0638 20.7056 20.7415C20.0089 21.4182 19.1261 21.7186 18.0359 21.8616C16.9755 22 15.622 22 13.9123 22H10.0873C8.37754 22 7.02315 22 5.96364 21.8616C4.87343 21.7186 3.99066 21.4182 3.29393 20.7415C2.59813 20.0638 2.2893 19.2052 2.14232 18.1448C2 17.1134 2 15.797 2 14.134V12.2231C2 11.2903 2 10.4661 2.02512 9.74048C1.9863 9.60328 1.99281 9.45769 2.04372 9.32429C2.06418 8.92167 2.09581 8.55162 2.14232 8.21233C2.2893 7.15195 2.59813 6.29333 3.29393 5.61567C3.99066 4.9389 4.87343 4.63852 5.96364 4.49557C6.18038 4.46752 6.41014 4.4449 6.65106 4.42681V3.67857C6.65106 3.4986 6.72457 3.32601 6.8554 3.19875C6.98624 3.07149 7.16369 3 7.34872 3ZM3.40741 10.2381C3.39532 10.8289 3.39532 11.5011 3.39532 12.2738V14.0833C3.39532 15.8087 3.39718 17.0347 3.52555 17.9648C3.65113 18.874 3.8874 19.3988 4.28088 19.7815C4.67436 20.1642 5.21388 20.394 6.14968 20.5162C7.10594 20.641 8.36545 20.6429 10.1394 20.6429H13.8602C15.6341 20.6429 16.8946 20.641 17.8508 20.5162C18.7857 20.394 19.3252 20.1642 19.7187 19.7815C20.1122 19.3988 20.3484 18.874 20.474 17.9639C20.6024 17.0347 20.6043 15.8087 20.6043 14.0833V12.2738C20.6043 11.5011 20.6043 10.8289 20.5922 10.2381H3.40741ZM20.528 8.88095H3.4716C3.48648 8.70905 3.50415 8.5471 3.52555 8.39238C3.65113 7.4831 3.8874 6.95833 4.28088 6.57562C4.67436 6.1929 5.21388 5.9631 6.14968 5.84095C7.10594 5.7161 8.36545 5.71429 10.1394 5.71429H13.8602C15.6341 5.71429 16.8946 5.7161 17.8508 5.84095C18.7857 5.9631 19.3252 6.1929 19.7187 6.57562C20.1122 6.95833 20.3484 7.4831 20.474 8.39329C20.4954 8.5471 20.5131 8.70995 20.528 8.88095Z" fill="#666666"/>
</svg>
