<svg width="24" height="24" viewBox="0 0 24 24" fill="none" xmlns="http://www.w3.org/2000/svg">
<path fill-rule="evenodd" clip-rule="evenodd" d="M4.90131 4.89134C8.79366 1.00411 15.1219 1.04514 19.0379 4.96211C22.9559 8.8801 22.9969 15.2115 19.1035 19.1038C15.2112 22.9962 8.87982 22.9562 4.96183 19.0382C3.85976 17.9406 3.02708 16.6026 2.52916 15.1291C2.03123 13.6556 1.88161 12.0868 2.09205 10.5458C2.11966 10.3435 2.22648 10.1605 2.38901 10.037C2.55155 9.91355 2.75648 9.85968 2.95873 9.88729C3.16097 9.9149 3.34397 10.0217 3.46746 10.1843C3.59094 10.3468 3.64481 10.5517 3.6172 10.754C3.43857 12.0599 3.5652 13.3895 3.98716 14.6383C4.40911 15.8871 5.11488 17.021 6.04902 17.951C9.37726 21.2782 14.7342 21.2977 18.0163 18.0166C21.2974 14.7345 21.2779 9.37754 17.9507 6.0493C14.6245 2.72413 9.27059 2.70259 5.9885 5.97955L6.75569 5.98263C6.85671 5.9831 6.95665 6.00347 7.04979 6.04256C7.14294 6.08165 7.22748 6.13871 7.29858 6.21048C7.36967 6.28224 7.42594 6.3673 7.46416 6.46081C7.50238 6.55432 7.52181 6.65444 7.52134 6.75546C7.52087 6.85648 7.50051 6.95642 7.46141 7.04956C7.42232 7.14271 7.36526 7.22725 7.2935 7.29834C7.22173 7.36944 7.13667 7.42571 7.04316 7.46393C6.94965 7.50215 6.84953 7.52158 6.74851 7.52111L4.1372 7.5088C3.93443 7.50772 3.74029 7.42662 3.597 7.28314C3.45371 7.13967 3.37287 6.94541 3.37206 6.74264L3.35873 4.13338C3.35819 4.03236 3.37756 3.93223 3.41572 3.83869C3.45388 3.74516 3.51009 3.66006 3.58113 3.58824C3.65218 3.51643 3.73668 3.45932 3.8298 3.42016C3.92293 3.38101 4.02285 3.36058 4.12387 3.36004C4.22489 3.3595 4.32502 3.37886 4.41856 3.41702C4.51209 3.45518 4.59719 3.51139 4.669 3.58244C4.74082 3.65349 4.79793 3.73799 4.83709 3.83111C4.87624 3.92423 4.89667 4.02416 4.89721 4.12517L4.90131 4.89236V4.89134Z" fill="#666666"/>
<path d="M11.9999 7.12829C12.2039 7.12829 12.3995 7.20933 12.5438 7.35359C12.688 7.49785 12.7691 7.69351 12.7691 7.89753V11.6822L15.1076 14.0207C15.1832 14.0911 15.2438 14.176 15.2858 14.2704C15.3279 14.3647 15.3505 14.4666 15.3523 14.5699C15.3541 14.6732 15.3351 14.7758 15.2964 14.8716C15.2577 14.9673 15.2002 15.0543 15.1271 15.1274C15.0541 15.2004 14.9671 15.258 14.8713 15.2967C14.7755 15.3354 14.6729 15.3544 14.5696 15.3526C14.4663 15.3508 14.3645 15.3281 14.2701 15.2861C14.1757 15.2441 14.0908 15.1834 14.0204 15.1079L11.5311 12.6196C11.4358 12.5243 11.3601 12.4111 11.3086 12.2865C11.257 12.1619 11.2305 12.0283 11.2306 11.8935V7.89753C11.2306 7.69351 11.3117 7.49785 11.4559 7.35359C11.6002 7.20933 11.7958 7.12829 11.9999 7.12829Z" fill="#666666"/>
</svg>
