<svg width="32" height="24" viewBox="0 0 32 24" fill="none" xmlns="http://www.w3.org/2000/svg">
<path d="M6.64533 9.78862C6.64554 8.79057 6.90129 7.80953 7.38776 6.94069C7.87423 6.07185 8.57491 5.34472 9.42179 4.82986C10.2687 4.315 11.233 4.0299 12.2212 4.00223C13.2094 3.97455 14.1879 4.20524 15.0618 4.67191C15.9356 5.13857 16.6751 5.82537 17.2086 6.66565C17.742 7.50592 18.0512 8.47114 18.1062 9.46764C18.1612 10.4641 17.9602 11.4581 17.5225 12.353C17.0849 13.2479 16.4255 14.0134 15.6085 14.5752C17.368 15.2268 18.8942 16.395 19.9906 17.9296C21.087 19.4643 21.7033 21.295 21.7604 23.1863C21.758 23.3902 21.6776 23.5853 21.5361 23.7307C21.3945 23.8762 21.2028 23.9609 21.0009 23.967C20.799 23.9731 20.6026 23.9002 20.4526 23.7636C20.3027 23.6269 20.2109 23.437 20.1964 23.2336C20.1343 21.1824 19.2835 19.2362 17.8244 17.8074C16.3653 16.3787 14.4124 15.5796 12.3797 15.5796C10.347 15.5796 8.39416 16.3787 6.93502 17.8074C5.47589 19.2362 4.62514 21.1824 4.56304 23.2336C4.5526 23.4398 4.46261 23.6336 4.31233 23.7736C4.16206 23.9136 3.96346 23.9886 3.75909 23.9825C3.55471 23.9764 3.36081 23.8898 3.21893 23.7412C3.07705 23.5926 2.99847 23.3937 3.00002 23.1873C3.0569 21.2959 3.6732 19.4649 4.76959 17.9301C5.86597 16.3953 7.39227 15.2268 9.152 14.5752C8.37918 14.0443 7.74674 13.3305 7.30982 12.4962C6.8729 11.6619 6.64478 10.7324 6.64533 9.78862ZM12.3802 5.57784C11.2741 5.57784 10.2132 6.02147 9.431 6.81114C8.64882 7.60082 8.20939 8.67185 8.20939 9.78862C8.20939 10.9054 8.64882 11.9764 9.431 12.7661C10.2132 13.5558 11.2741 13.9994 12.3802 13.9994C13.4864 13.9994 14.5473 13.5558 15.3295 12.7661C16.1116 11.9764 16.5511 10.9054 16.5511 9.78862C16.5511 8.67185 16.1116 7.60082 15.3295 6.81114C14.5473 6.02147 13.4864 5.57784 12.3802 5.57784ZM21.0243 9.78862C20.87 9.78862 20.7198 9.79914 20.5717 9.8202C20.4684 9.83888 20.3623 9.83636 20.2599 9.81277C20.1575 9.78919 20.0609 9.74502 19.9758 9.68291C19.8907 9.6208 19.8188 9.54202 19.7645 9.45127C19.7102 9.36052 19.6746 9.25965 19.6597 9.15469C19.6449 9.04973 19.6511 8.94283 19.6781 8.84035C19.705 8.73788 19.7522 8.64194 19.8167 8.55825C19.8811 8.47457 19.9617 8.40485 20.0534 8.35327C20.1452 8.30168 20.2463 8.26928 20.3507 8.258C21.3877 8.10662 22.4452 8.30768 23.3567 8.82953C24.2681 9.35138 24.9819 10.1644 25.3855 11.1406C25.7892 12.1168 25.8598 13.2009 25.5864 14.2221C25.3129 15.2433 24.7109 16.1437 23.875 16.7817C25.1038 17.3371 26.147 18.2397 26.879 19.3804C27.6109 20.5211 28.0002 21.8513 28 23.2105C28 23.4199 27.9176 23.6207 27.771 23.7688C27.6243 23.9168 27.4254 24 27.218 24C27.0106 24 26.8117 23.9168 26.665 23.7688C26.5183 23.6207 26.4359 23.4199 26.4359 23.2105C26.4358 22.0358 26.0609 20.8925 25.3668 19.9497C24.6727 19.007 23.6962 18.3151 22.5821 17.9765L22.0253 17.808V16.0437L22.4528 15.8237C23.0865 15.4996 23.5935 14.9694 23.8921 14.3186C24.1906 13.6678 24.2631 12.9345 24.098 12.2369C23.9329 11.5394 23.5398 10.9184 22.9821 10.4742C22.4244 10.0299 21.7347 9.78842 21.0243 9.78862Z" fill="#666666"/>
</svg>
