<svg width="17" height="12" viewBox="0 0 17 12" fill="none" xmlns="http://www.w3.org/2000/svg">
<path d="M6.11523 8.9187C7.53496 7.69314 9.61439 7.69328 11.0342 8.9187C11.1056 8.98464 11.1474 9.07822 11.1494 9.17651C11.1514 9.27475 11.1136 9.36939 11.0449 9.43823L8.82129 11.7283C8.75618 11.7955 8.6678 11.8337 8.5752 11.8337C8.48248 11.8337 8.3933 11.7956 8.32812 11.7283L6.10449 9.43823C6.03589 9.36936 5.998 9.27472 6 9.17651C6.00204 9.07822 6.04375 8.98459 6.11523 8.9187ZM3.10938 6.17847C6.16845 3.27387 10.9058 3.27387 13.9648 6.17847C14.0339 6.24657 14.0732 6.34025 14.0742 6.43823C14.0751 6.53611 14.0373 6.63051 13.9697 6.69995L12.6846 8.02515C12.5521 8.16043 12.338 8.16374 12.2021 8.03198C11.1977 7.10356 9.89123 6.58957 8.53613 6.5896C7.18182 6.59017 5.87596 7.10407 4.87207 8.03198C4.7362 8.16373 4.52209 8.1605 4.38965 8.02515L3.10449 6.69995C3.03673 6.63059 2.99917 6.53617 3 6.43823C3.00091 6.34027 3.04038 6.24656 3.10938 6.17847ZM0.107422 3.44214C4.79927 -1.14747 12.2007 -1.14741 16.8926 3.44214C16.9605 3.51033 16.9994 3.60369 17 3.70093C17.0005 3.79802 16.9625 3.8918 16.8955 3.96069L15.6094 5.28589C15.4768 5.42187 15.2616 5.42358 15.127 5.28979C13.3393 3.55503 10.9666 2.58776 8.5 2.58765C6.03337 2.58776 3.66078 3.55502 1.87305 5.28979C1.7385 5.42369 1.52304 5.42204 1.39062 5.28589L0.103516 3.96069C0.0365461 3.89177 -0.000499177 3.79799 0 3.70093C0.00062672 3.60369 0.0394563 3.51028 0.107422 3.44214Z" fill="#232933"/>
</svg>
